<svg width="23" height="32" viewBox="0 0 23 32" fill="none" xmlns="http://www.w3.org/2000/svg">
	<path d="M5.74971 32C5.55881 32 5.36791 31.9531 5.19254 31.8571C4.7311 31.6026 4.50311 31.0691 4.63881 30.5626L7.62651 19.4286H1.14971C0.792635 19.4286 0.455684 19.2634 0.237759 18.982C0.0198337 18.7006 -0.0531913 18.3346 0.0390962 17.9909L4.6391 0.848C4.77279 0.348286 5.22876 0 5.74971 0H17.2497C17.6068 0 17.9437 0.165143 18.1617 0.446571C18.3796 0.728 18.4526 1.094 18.3603 1.43771L15.3732 12.5714H21.8497C22.308 12.5714 22.7223 12.8414 22.9043 13.2589C23.0874 13.6763 23.0032 14.1617 22.6909 14.4943L6.59094 31.6371C6.36755 31.8751 6.05964 32 5.74971 32V32ZM2.64672 17.1429H9.12324C9.48032 17.1429 9.81727 17.308 10.0352 17.5894C10.2531 17.8709 10.3261 18.2369 10.2339 18.5806L8.04511 26.738L19.2039 14.8571H13.8762C13.5191 14.8571 13.1822 14.692 12.9642 14.4106C12.7463 14.1291 12.6733 13.7631 12.7656 13.4194L15.7527 2.28571H6.63378L2.64672 17.1429Z" fill="#757575"/>
</svg>
