<svg width="60" height="58" viewBox="0 0 60 58" fill="none" xmlns="http://www.w3.org/2000/svg">
<rect y="2" width="56" height="56" rx="20" fill="#E9EEFF"/>
<path d="M37.625 22.1251H36.75V18.6251C36.75 18.4727 36.7102 18.3229 36.6345 18.1907C36.5589 18.0584 36.45 17.9482 36.3186 17.8709C36.1873 17.7937 36.0381 17.752 35.8857 17.7502C35.7333 17.7483 35.5831 17.7863 35.4499 17.8603L28 21.9991L20.5501 17.8603C20.4169 17.7863 20.2667 17.7483 20.1143 17.7502C19.9619 17.752 19.8127 17.7937 19.6814 17.8709C19.55 17.9482 19.4411 18.0584 19.3655 18.1907C19.2898 18.3229 19.25 18.4727 19.25 18.6251V22.1251H18.375C17.679 22.1258 17.0118 22.4026 16.5197 22.8947C16.0276 23.3869 15.7508 24.0541 15.75 24.7501V27.3751C15.7508 28.071 16.0276 28.7383 16.5197 29.2304C17.0118 29.7225 17.679 29.9993 18.375 30.0001H19.25V39.6251C19.2508 40.321 19.5276 40.9882 20.0197 41.4804C20.5118 41.9725 21.179 42.2493 21.875 42.2501H34.125C34.821 42.2493 35.4882 41.9725 35.9803 41.4804C36.4724 40.9882 36.7492 40.321 36.75 39.6251V30.0001H37.625C38.321 29.9993 38.9882 29.7225 39.4803 29.2304C39.9724 28.7383 40.2492 28.071 40.25 27.3751V24.7501C40.2492 24.0541 39.9724 23.3869 39.4803 22.8947C38.9882 22.4026 38.321 22.1258 37.625 22.1251ZM35 22.1251H31.3769L35 20.1126V22.1251ZM21 20.1126L24.6231 22.1251H21V20.1126ZM21 39.6251V30.0001H27.125V40.5001H21.875C21.643 40.4998 21.4206 40.4075 21.2566 40.2434C21.0926 40.0794 21.0003 39.857 21 39.6251ZM35 39.6251C34.9997 39.857 34.9074 40.0794 34.7434 40.2434C34.5794 40.4075 34.357 40.4998 34.125 40.5001H28.875V30.0001H35V39.6251ZM38.5 27.3751C38.4997 27.607 38.4074 27.8294 38.2434 27.9934C38.0794 28.1575 37.857 28.2498 37.625 28.2501H18.375C18.143 28.2498 17.9206 28.1575 17.7566 27.9934C17.5926 27.8294 17.5003 27.607 17.5 27.3751V24.7501C17.5003 24.5181 17.5926 24.2957 17.7566 24.1317C17.9206 23.9676 18.143 23.8754 18.375 23.8751H37.625C37.857 23.8754 38.0794 23.9676 38.2434 24.1317C38.4074 24.2957 38.4997 24.5181 38.5 24.7501V27.3751Z" fill="#0B2A97"/>
<circle cx="49" cy="11" r="9" fill="#FF9900" stroke="#FBFBFB" stroke-width="4"/>
</svg>
