<svg width="60" height="58" viewBox="0 0 60 58" fill="none" xmlns="http://www.w3.org/2000/svg">
<rect y="2" width="56" height="56" rx="20" fill="#E9EEFF"/>
<path d="M36.4605 19.8489H19.3169C18.6475 19.8496 18.0057 20.1159 17.5324 20.5892C17.059 21.0625 16.7928 21.7043 16.7921 22.3737V34.1562C16.7928 34.8256 17.059 35.4674 17.5324 35.9407C18.0057 36.4141 18.6475 36.6803 19.3169 36.6811C19.54 36.6812 19.754 36.7699 19.9118 36.9277C20.0696 37.0855 20.1584 37.2995 20.1585 37.5227V39.3168C20.1585 39.6215 20.2412 39.9204 20.3977 40.1818C20.5543 40.4431 20.7789 40.6571 21.0475 40.8009C21.3161 40.9446 21.6187 41.0128 21.923 40.9981C22.2273 40.9834 22.5219 40.8863 22.7754 40.7173L28.6173 36.8224C28.7554 36.7299 28.918 36.6807 29.0842 36.6811H33.187C33.7383 36.68 34.2743 36.4994 34.7137 36.1664C35.1531 35.8335 35.4721 35.3664 35.6222 34.8359L38.8966 23.0501C38.9999 22.6748 39.0152 22.2807 38.9414 21.8986C38.8675 21.5164 38.7064 21.1564 38.4707 20.8466C38.235 20.5369 37.931 20.2857 37.5823 20.1126C37.2336 19.9396 36.8497 19.8493 36.4605 19.8489ZM37.2733 22.603L34.0006 34.3847C33.95 34.5614 33.8432 34.7168 33.6964 34.8275C33.5496 34.9381 33.3708 34.9979 33.187 34.9978H29.0842C28.5856 34.9972 28.0981 35.1448 27.6837 35.4219L21.8417 39.3168V37.5227C21.841 36.8533 21.5747 36.2115 21.1014 35.7382C20.6281 35.2648 19.9863 34.9986 19.3169 34.9978C19.0937 34.9977 18.8797 34.909 18.7219 34.7512C18.5641 34.5934 18.4754 34.3794 18.4753 34.1562V22.3737C18.4754 22.1505 18.5641 21.9365 18.7219 21.7787C18.8797 21.6209 19.0937 21.5322 19.3169 21.5321H36.4605C36.5905 21.5324 36.7188 21.5628 36.8353 21.6208C36.9517 21.6788 37.0532 21.7628 37.1318 21.8665C37.2105 21.9701 37.2642 22.0905 37.2887 22.2182C37.3132 22.346 37.308 22.4777 37.2733 22.603Z" fill="#0B2A97"/>
<path d="M21.8417 27.4233H26.0498C26.273 27.4233 26.4871 27.3347 26.6449 27.1768C26.8027 27.019 26.8914 26.8049 26.8914 26.5817C26.8914 26.3585 26.8027 26.1444 26.6449 25.9866C26.4871 25.8288 26.273 25.7401 26.0498 25.7401H21.8417C21.6185 25.7401 21.4045 25.8288 21.2466 25.9866C21.0888 26.1444 21.0001 26.3585 21.0001 26.5817C21.0001 26.8049 21.0888 27.019 21.2466 27.1768C21.4045 27.3347 21.6185 27.4233 21.8417 27.4233Z" fill="#0B2A97"/>
<path d="M29.4162 29.1066H21.8417C21.6185 29.1066 21.4045 29.1952 21.2466 29.3531C21.0888 29.5109 21.0001 29.725 21.0001 29.9482C21.0001 30.1714 21.0888 30.3855 21.2466 30.5433C21.4045 30.7011 21.6185 30.7898 21.8417 30.7898H29.4162C29.6394 30.7898 29.8535 30.7011 30.0113 30.5433C30.1692 30.3855 30.2578 30.1714 30.2578 29.9482C30.2578 29.725 30.1692 29.5109 30.0113 29.3531C29.8535 29.1952 29.6394 29.1066 29.4162 29.1066Z" fill="#0B2A97"/>
<circle cx="49" cy="11" r="9" fill="#FF9900" stroke="#FBFBFB" stroke-width="4"/>
</svg>
