<svg width="28" height="28" viewBox="0 0 28 28" fill="none" xmlns="http://www.w3.org/2000/svg">
	<path d="M24.7188 2.1875H23.4062V0H21.2188V2.1875H6.78125V0H4.59375V2.1875H3.28125C1.47197 2.1875 0 3.65947 0 5.46875V24.7188C0 26.528 1.47197 28 3.28125 28H18.8402L28 18.4879V5.46875C28 3.65947 26.528 2.1875 24.7188 2.1875ZM19.4688 24.1936V20.2344C19.4688 19.6313 19.9594 19.1406 20.5625 19.1406H24.3346L19.4688 24.1936ZM25.8125 16.9531H20.5625C18.7532 16.9531 17.2812 18.4251 17.2812 20.2344V25.8125H3.28125C2.67816 25.8125 2.1875 25.3218 2.1875 24.7188V10.2812H25.8125V16.9531ZM25.8125 8.09375H2.1875V5.46875C2.1875 4.86566 2.67816 4.375 3.28125 4.375H4.59375V6.5625H6.78125V4.375H21.2188V6.5625H23.4062V4.375H24.7188C25.3218 4.375 25.8125 4.86566 25.8125 5.46875V8.09375Z" fill="#757575"/>
</svg>




