<svg width="80" height="80" viewBox="0 0 80 80" fill="none" xmlns="http://www.w3.org/2000/svg">
	<rect width="80" height="80" rx="40" fill="#EEDDFB"/>
	<path d="M21.6483 48.5285C20.5471 48.7394 19.8257 49.8026 20.0366 50.9038C20.2223 51.8741 21.0745 52.5491 22.028 52.5491C22.1545 52.5491 22.2853 52.5364 22.4119 52.5112L30.7653 50.908C31.242 50.8152 31.6682 50.5578 31.9719 50.1781L35.558 45.6554L34.3599 45.0437C33.4739 44.5965 32.8579 43.7865 32.6469 42.8035L29.2634 47.0688L21.6483 48.5285Z" fill="#A02CFA"/>
	<path d="M51.3999 30.8935C53.8558 30.8935 55.8467 28.9026 55.8467 26.4467C55.8467 23.9909 53.8558 22 51.3999 22C48.9441 22 46.9532 23.9909 46.9532 26.4467C46.9532 28.9026 48.9441 30.8935 51.3999 30.8935Z" fill="#A02CFA"/>
	<path d="M41.6965 25.333C41.2282 24.852 40.7937 24.6622 40.3169 24.6622C40.1439 24.6622 39.971 24.6875 39.7853 24.7297L32.1534 26.5396C31.0986 26.7885 30.4489 27.8474 30.6979 28.8979C30.913 29.8008 31.7146 30.4083 32.6048 30.4083C32.7567 30.4083 32.9086 30.3914 33.0605 30.3535L39.5618 28.8136C39.9837 29.2819 42.0974 31.5727 42.4813 31.9777C39.7938 34.855 37.1064 37.7281 34.4189 40.6054C34.3767 40.6519 34.3388 40.6982 34.3008 40.7446C33.5161 41.7445 33.7566 43.3139 34.9379 43.9088L43.1774 48.1151L38.8994 55.0467C38.313 56.0002 38.6083 57.249 39.5618 57.8396C39.8951 58.0464 40.2621 58.1434 40.6249 58.1434C41.3042 58.1434 41.9707 57.8017 42.3547 57.1815L47.7886 48.3766C48.0882 47.8915 48.1683 47.305 48.0122 46.7608C47.8561 46.2123 47.4806 45.7567 46.9702 45.4993L41.3885 42.66L47.2571 36.3823L51.6869 40.1371C52.0539 40.4493 52.5054 40.6012 52.9526 40.6012C53.4335 40.6012 53.9145 40.424 54.2899 40.078L59.3737 35.3402C60.1669 34.6019 60.2133 33.3615 59.475 32.5684C59.0868 32.1549 58.5637 31.944 58.0406 31.944C57.5638 31.944 57.0829 32.117 56.7074 32.4671L52.9019 36.0068C52.8977 36.011 43.363 27.0416 41.6965 25.333Z" fill="#A02CFA"/>
</svg>

