<svg width="20" height="20" viewBox="0 0 20 20" fill="none" xmlns="http://www.w3.org/2000/svg">
	<path d="M5.09567 20C4.80435 19.9988 4.51675 19.9344 4.25271 19.8113C3.98866 19.6881 3.75445 19.5091 3.56622 19.2866C3.37799 19.0641 3.24022 18.8034 3.16241 18.5225C3.0846 18.2415 3.0686 17.9471 3.11552 17.6593L3.88903 12.8902L0.569421 9.45986C0.312004 9.19466 0.132431 8.86374 0.050346 8.50328C-0.0317386 8.14282 -0.0131726 7.76671 0.104013 7.4161C0.221199 7.06549 0.43249 6.75388 0.714772 6.51537C0.997054 6.27685 1.33945 6.12062 1.70451 6.06376L6.20046 5.37325L8.18156 1.13817C8.34753 0.796915 8.60604 0.509234 8.9276 0.307978C9.24915 0.106721 9.62078 0 10 0C10.3793 0 10.7509 0.106721 11.0725 0.307978C11.3941 0.509234 11.6526 0.796915 11.8185 1.13817L13.7931 5.36719L18.2955 6.06376C18.6605 6.12062 19.0029 6.27685 19.2852 6.51537C19.5675 6.75388 19.7788 7.06549 19.896 7.4161C20.0132 7.76671 20.0317 8.14282 19.9497 8.50328C19.8676 8.86374 19.688 9.19466 19.4306 9.45986L16.1144 12.8765L16.885 17.66C16.9463 18.0327 16.9014 18.4152 16.7555 18.7635C16.6097 19.1119 16.3687 19.4121 16.0602 19.6297C15.7517 19.8473 15.3881 19.9735 15.0112 19.994C14.6343 20.0144 14.2593 19.9281 13.9292 19.7451L10.0026 17.5635L6.07115 19.7451C5.773 19.9118 5.43722 19.9996 5.09567 20ZM9.99985 15.5598C10.3404 15.5601 10.6752 15.6474 10.9726 15.8135L14.8996 17.9958L14.1359 13.2109C14.0864 12.9004 14.1097 12.5827 14.2039 12.2827C14.2982 11.9828 14.4608 11.7089 14.6789 11.4826L17.9955 8.06526L13.4956 7.35138C13.1689 7.30126 12.8597 7.17113 12.5953 6.97258C12.331 6.77403 12.1198 6.5132 11.9805 6.21327L10.0067 1.98551H10.0062C10.005 1.98197 10.0032 1.97867 10.0008 1.97575L8.01825 6.21428C7.8791 6.51394 7.66811 6.77455 7.40403 6.97293C7.13996 7.17131 6.83098 7.30131 6.50458 7.35138L2.00813 8.04189L5.32039 11.482C5.53863 11.7082 5.70133 11.9821 5.79566 12.2821C5.88998 12.582 5.91333 12.8998 5.86388 13.2103L5.08992 17.9805L9.02672 15.8139C9.32418 15.6476 9.65914 15.5602 9.99985 15.5598Z" fill="#FFAA29"/>
</svg>
