<svg width="58" height="58" viewBox="0 0 58 58" fill="none" xmlns="http://www.w3.org/2000/svg">
<rect y="2" width="56" height="56" rx="20" fill="#E9EEFF"/>
<path d="M36.75 31.8385V29.0463C36.7471 26.8855 35.9385 24.8035 34.4821 23.2073C33.0258 21.6112 31.0264 20.6156 28.875 20.4152V18.625C28.875 18.3929 28.7828 18.1704 28.6187 18.0063C28.4546 17.8422 28.2321 17.75 28 17.75C27.7679 17.75 27.5454 17.8422 27.3813 18.0063C27.2172 18.1704 27.125 18.3929 27.125 18.625V20.4153C24.9736 20.6157 22.9743 21.6113 21.5179 23.2075C20.0616 24.8036 19.2529 26.8855 19.25 29.0463V31.8383C18.2626 32.0412 17.3753 32.5784 16.7377 33.3593C16.1002 34.1401 15.7513 35.1169 15.75 36.125C15.7508 36.821 16.0276 37.4882 16.5197 37.9803C17.0118 38.4724 17.679 38.7492 18.375 38.75H23.7135C23.9152 39.738 24.452 40.6259 25.2331 41.2636C26.0142 41.9013 26.9916 42.2497 28 42.2497C29.0084 42.2497 29.9858 41.9013 30.7669 41.2636C31.548 40.6259 32.0848 39.738 32.2865 38.75H37.625C38.321 38.7492 38.9882 38.4724 39.4803 37.9803C39.9724 37.4882 40.2492 36.821 40.25 36.125C40.2486 35.117 39.8998 34.1402 39.2622 33.3594C38.6247 32.5786 37.7374 32.0414 36.75 31.8385ZM21 29.0463C21.0023 27.2113 21.7323 25.4522 23.0297 24.1547C24.3272 22.8573 26.0863 22.1273 27.9212 22.125H28.0788C29.9137 22.1273 31.6728 22.8573 32.9703 24.1547C34.2677 25.4522 34.9977 27.2113 35 29.0463V31.75H21V29.0463ZM28 40.5C27.4589 40.4983 26.9316 40.3292 26.4905 40.0159C26.0493 39.7026 25.716 39.2604 25.5363 38.75H30.4637C30.284 39.2604 29.9507 39.7026 29.5095 40.0159C29.0684 40.3292 28.5411 40.4983 28 40.5ZM37.625 37H18.375C18.143 36.9999 17.9205 36.9076 17.7564 36.7436C17.5924 36.5795 17.5001 36.357 17.5 36.125C17.5008 35.429 17.7776 34.7618 18.2697 34.2697C18.7618 33.7776 19.429 33.5008 20.125 33.5H35.875C36.571 33.5008 37.2382 33.7776 37.7303 34.2697C38.2224 34.7618 38.4992 35.429 38.5 36.125C38.4999 36.357 38.4076 36.5795 38.2436 36.7436C38.0795 36.9076 37.857 36.9999 37.625 37Z" fill="#0B2A97"/>
<circle cx="47" cy="11" r="9" fill="#FF9900" stroke="#FBFBFB" stroke-width="4"/>
</svg>
