<svg width="186" height="28" viewBox="0 0 186 28" fill="none" xmlns="http://www.w3.org/2000/svg">
<path d="M181.625 6.12506H180.75V2.62506C180.75 2.47268 180.71 2.32295 180.635 2.19068C180.559 2.05841 180.45 1.94819 180.319 1.87093C180.187 1.79367 180.038 1.75205 179.886 1.75019C179.733 1.74832 179.583 1.78629 179.45 1.86031L172 5.99915L164.55 1.86031C164.417 1.78629 164.267 1.74832 164.114 1.75019C163.962 1.75205 163.813 1.79367 163.681 1.87093C163.55 1.94819 163.441 2.05841 163.365 2.19068C163.29 2.32295 163.25 2.47268 163.25 2.62506V6.12506H162.375C161.679 6.12582 161.012 6.40263 160.52 6.89475C160.028 7.38687 159.751 8.0541 159.75 8.75006V11.3751C159.751 12.071 160.028 12.7383 160.52 13.2304C161.012 13.7225 161.679 13.9993 162.375 14.0001H163.25V23.6251C163.251 24.321 163.528 24.9882 164.02 25.4804C164.512 25.9725 165.179 26.2493 165.875 26.2501H178.125C178.821 26.2493 179.488 25.9725 179.98 25.4804C180.472 24.9882 180.749 24.321 180.75 23.6251V14.0001H181.625C182.321 13.9993 182.988 13.7225 183.48 13.2304C183.972 12.7383 184.249 12.071 184.25 11.3751V8.75006C184.249 8.0541 183.972 7.38687 183.48 6.89475C182.988 6.40263 182.321 6.12582 181.625 6.12506ZM179 6.12506H175.377L179 4.11256V6.12506ZM165 4.11256L168.623 6.12506H165V4.11256ZM165 23.6251V14.0001H171.125V24.5001H165.875C165.643 24.4998 165.421 24.4075 165.257 24.2434C165.093 24.0794 165 23.857 165 23.6251ZM179 23.6251C179 23.857 178.907 24.0794 178.743 24.2434C178.579 24.4075 178.357 24.4998 178.125 24.5001H172.875V14.0001H179V23.6251ZM182.5 11.3751C182.5 11.607 182.407 11.8294 182.243 11.9934C182.079 12.1575 181.857 12.2498 181.625 12.2501H162.375C162.143 12.2498 161.921 12.1575 161.757 11.9934C161.593 11.8294 161.5 11.607 161.5 11.3751V8.75006C161.5 8.51809 161.593 8.2957 161.757 8.13167C161.921 7.96764 162.143 7.87536 162.375 7.87506H181.625C181.857 7.87536 182.079 7.96764 182.243 8.13167C182.407 8.2957 182.5 8.51809 182.5 8.75006V11.3751Z" fill="#0B2A97"/>
<path d="M100.46 3.84888H83.3169C82.6475 3.84961 82.0057 4.11586 81.5324 4.58919C81.059 5.06253 80.7928 5.7043 80.7921 6.3737V18.1562C80.7928 18.8256 81.059 19.4674 81.5324 19.9407C82.0057 20.4141 82.6475 20.6803 83.3169 20.6811C83.54 20.6812 83.754 20.7699 83.9118 20.9277C84.0696 21.0855 84.1584 21.2995 84.1585 21.5227V23.3168C84.1585 23.6215 84.2412 23.9204 84.3977 24.1818C84.5543 24.4431 84.7789 24.6571 85.0475 24.8009C85.3161 24.9446 85.6187 25.0128 85.923 24.9981C86.2273 24.9834 86.5219 24.8863 86.7754 24.7173L92.6173 20.8224C92.7554 20.7299 92.918 20.6807 93.0842 20.6811H97.187C97.7383 20.68 98.2743 20.4994 98.7137 20.1664C99.1531 19.8335 99.4721 19.3664 99.6222 18.8359L102.897 7.05011C103 6.67481 103.015 6.28074 102.941 5.89856C102.868 5.51637 102.706 5.15639 102.471 4.84663C102.235 4.53687 101.931 4.28568 101.582 4.11263C101.234 3.93957 100.85 3.84931 100.46 3.84888V3.84888ZM101.273 6.60304L98.0006 18.3847C97.95 18.5614 97.8432 18.7168 97.6964 18.8275C97.5496 18.9381 97.3708 18.9979 97.187 18.9978H93.0842C92.5856 18.9972 92.0981 19.1448 91.6837 19.4219L85.8417 23.3168V21.5227C85.841 20.8533 85.5747 20.2115 85.1014 19.7382C84.6281 19.2648 83.9863 18.9986 83.3169 18.9978C83.0937 18.9977 82.8797 18.909 82.7219 18.7512C82.5641 18.5934 82.4754 18.3794 82.4753 18.1562V6.3737C82.4754 6.15054 82.5641 5.93655 82.7219 5.77874C82.8797 5.62094 83.0937 5.53223 83.3169 5.5321H100.46C100.591 5.53243 100.719 5.56277 100.835 5.62076C100.952 5.67875 101.053 5.76283 101.132 5.86646C101.21 5.97008 101.264 6.09045 101.289 6.21821C101.313 6.34597 101.308 6.47766 101.273 6.60304V6.60304Z" fill="#0B2A97"/>
<path d="M85.8417 11.4233H90.0498C90.273 11.4233 90.4871 11.3347 90.6449 11.1768C90.8027 11.019 90.8914 10.8049 90.8914 10.5817C90.8914 10.3585 90.8027 10.1444 90.6449 9.98661C90.4871 9.82878 90.273 9.74011 90.0498 9.74011H85.8417C85.6185 9.74011 85.4045 9.82878 85.2466 9.98661C85.0888 10.1444 85.0001 10.3585 85.0001 10.5817C85.0001 10.8049 85.0888 11.019 85.2466 11.1768C85.4045 11.3347 85.6185 11.4233 85.8417 11.4233Z" fill="#0B2A97"/>
<path d="M93.4162 13.1066H85.8417C85.6185 13.1066 85.4045 13.1952 85.2466 13.3531C85.0888 13.5109 85.0001 13.725 85.0001 13.9482C85.0001 14.1714 85.0888 14.3855 85.2466 14.5433C85.4045 14.7011 85.6185 14.7898 85.8417 14.7898H93.4162C93.6394 14.7898 93.8535 14.7011 94.0113 14.5433C94.1692 14.3855 94.2578 14.1714 94.2578 13.9482C94.2578 13.725 94.1692 13.5109 94.0113 13.3531C93.8535 13.1952 93.6394 13.1066 93.4162 13.1066Z" fill="#0B2A97"/>
<path d="M22.75 15.8385V13.0463C22.7471 10.8855 21.9385 8.80353 20.4821 7.20735C19.0258 5.61116 17.0264 4.61555 14.875 4.41516V2.625C14.875 2.39294 14.7828 2.17038 14.6187 2.00628C14.4546 1.84219 14.2321 1.75 14 1.75C13.7679 1.75 13.5454 1.84219 13.3813 2.00628C13.2172 2.17038 13.125 2.39294 13.125 2.625V4.41534C10.9736 4.61572 8.97429 5.61131 7.51794 7.20746C6.06159 8.80361 5.25291 10.8855 5.25 13.0463V15.8383C4.26257 16.0412 3.37529 16.5784 2.73774 17.3593C2.10019 18.1401 1.75134 19.1169 1.75 20.125C1.75076 20.821 2.02757 21.4882 2.51969 21.9803C3.01181 22.4724 3.67904 22.7492 4.375 22.75H9.71346C9.91521 23.738 10.452 24.6259 11.2331 25.2636C12.0142 25.9013 12.9916 26.2497 14 26.2497C15.0084 26.2497 15.9858 25.9013 16.7669 25.2636C17.548 24.6259 18.0848 23.738 18.2865 22.75H23.625C24.321 22.7492 24.9882 22.4724 25.4803 21.9803C25.9724 21.4882 26.2492 20.821 26.25 20.125C26.2486 19.117 25.8998 18.1402 25.2622 17.3594C24.6247 16.5786 23.7374 16.0414 22.75 15.8385ZM7 13.0463C7.00232 11.2113 7.73226 9.45223 9.02974 8.15474C10.3272 6.85726 12.0863 6.12732 13.9212 6.125H14.0788C15.9137 6.12732 17.6728 6.85726 18.9703 8.15474C20.2677 9.45223 20.9977 11.2113 21 13.0463V15.75H7V13.0463ZM14 24.5C13.4589 24.4983 12.9316 24.3292 12.4905 24.0159C12.0493 23.7026 11.716 23.2604 11.5363 22.75H16.4637C16.284 23.2604 15.9507 23.7026 15.5095 24.0159C15.0684 24.3292 14.5411 24.4983 14 24.5V24.5ZM23.625 21H4.375C4.14298 20.9999 3.9205 20.9076 3.75644 20.7436C3.59237 20.5795 3.50014 20.357 3.5 20.125C3.50076 19.429 3.77757 18.7618 4.26969 18.2697C4.76181 17.7776 5.42904 17.5008 6.125 17.5H21.875C22.571 17.5008 23.2382 17.7776 23.7303 18.2697C24.2224 18.7618 24.4992 19.429 24.5 20.125C24.4999 20.357 24.4076 20.5795 24.2436 20.7436C24.0795 20.9076 23.857 20.9999 23.625 21V21Z" fill="#0B2A97"/>
</svg>
