<svg width="52" height="52" viewBox="0 0 52 52" fill="none" xmlns="http://www.w3.org/2000/svg">
	<path d="M0 20C0 8.9543 8.95431 0 20 0H32C43.0457 0 52 8.95431 52 20V44C52 48.4183 48.4183 52 44 52H20C8.9543 52 0 43.0457 0 32V20Z" fill="url(#paint0_linear_133_143)"/>
	<path d="M20.5233 17.9965C22.5388 17.9965 24.1726 16.4302 24.1726 14.4982C24.1726 12.5663 22.5388 11 20.5233 11C18.5082 11 16.8745 12.5663 16.8745 14.4982C16.8745 16.4302 18.5082 17.9965 20.5233 17.9965Z" fill="white"/>
	<path d="M21.715 22.5675C22.9541 24.6077 24.1307 26.684 25.2608 28.7826C23.5903 29.6012 21.6138 31.0361 20.6062 31.8195C19.5986 32.603 17.7199 36.6073 16.7539 38.5219C15.7162 40.5779 19.0549 42.0694 20.0888 40.0219C20.9409 38.3345 22.3759 34.9761 23.2112 34.3168C24.0465 33.6575 26.7885 31.7972 28.8804 31.0986C28.9834 31.0641 29.0771 31.0231 29.1659 30.9775C31.7266 34.0933 36.7421 35.565 41.02 33.1683C43.2741 31.9053 41.2352 28.7914 38.9745 30.0582C35.8411 31.8149 32.58 29.5687 31.1034 26.7561C29.6266 23.9435 28.5803 21.9639 27.3832 19.9721C29.7209 19.2573 31.8582 19.9102 33.5391 22.1669C34.906 24.003 38.1035 22.2424 36.7209 20.3846C33.4676 16.0167 28.6167 14.9327 23.76 17.6969C23.5582 17.8119 22.6464 18.2935 22.441 18.4104C19.422 20.1287 16.6164 19.8029 14.5212 16.9893C13.1533 15.153 9.95644 16.9137 11.34 18.7712C14.0131 22.3611 17.7662 23.7274 21.715 22.5675Z" fill="white"/>
	<defs>
		<linearGradient id="paint0_linear_133_143" x1="26" y1="8.49366e-07" x2="54.5" y2="56" gradientUnits="userSpaceOnUse">
			<stop stop-color="#6A10C5"/>
			<stop offset="1" stop-color="#0B2A97"/>
		</linearGradient>
	</defs>
</svg>

